<?xml version="1.0" encoding="UTF-8"?>
<svg version="1.1" xmlns="http://www.w3.org/2000/svg" width="636" height="636">
<path d="M0 0 C2.24090934 0.72566836 4.48922819 1.42140195 6.74121094 2.11181641 C35.57025292 11.11607004 63.85493631 25.04791133 88.31152344 42.74853516 C88.88918457 43.16474121 89.4668457 43.58094727 90.06201172 44.00976562 C93.5300459 46.52483013 96.93386014 49.11375968 100.31152344 51.74853516 C101.17003906 52.41369141 102.02855469 53.07884766 102.91308594 53.76416016 C108.11282951 57.8531226 113.07190987 62.15172138 117.95605469 66.61181641 C119.98146315 68.44912724 122.03983599 70.22894204 124.12402344 71.99853516 C132.78857963 79.55360549 140.98313675 87.89464756 148.31152344 96.74853516 C148.75399414 97.27189453 149.19646484 97.79525391 149.65234375 98.33447266 C171.5590928 124.27704814 189.83576718 154.1184997 202.31152344 185.74853516 C202.65248047 186.60479492 202.9934375 187.46105469 203.34472656 188.34326172 C216.13035877 220.89363225 224.34534474 256.33509304 224.51464844 291.40869141 C224.52166275 292.38848969 224.52867706 293.36828796 224.53590393 294.3777771 C224.55330563 297.52224381 224.55975627 300.66652206 224.56152344 303.81103516 C224.56253555 305.42415085 224.56253555 305.42415085 224.56356812 307.06985474 C224.5475179 323.16551736 224.09957386 338.85800775 221.31152344 354.74853516 C221.05411377 356.26882324 221.05411377 356.26882324 220.79150391 357.81982422 C213.62648919 399.19634354 198.9092057 439.2612002 176.31152344 474.74853516 C175.33699219 476.29541016 175.33699219 476.29541016 174.34277344 477.87353516 C165.66685933 491.24297657 155.7896816 503.757573 145.31152344 515.74853516 C144.58707031 516.58513672 143.86261719 517.42173828 143.11621094 518.28369141 C134.16220303 528.44368193 124.68167034 538.23042978 114.00683594 546.58837891 C111.78841651 548.36632955 109.66874339 550.19237098 107.54589844 552.08056641 C57.99092029 595.66037786 -14.41923794 622.63247031 -80.31347656 622.95166016 C-81.29058594 622.95867447 -82.26769531 622.96568878 -83.27441406 622.97291565 C-86.41248235 622.99032274 -89.55036175 622.99676847 -92.68847656 622.99853516 C-93.76194336 622.9992099 -94.83541016 622.99988464 -95.94140625 623.00057983 C-112.37034354 622.98417665 -128.45848921 622.54210981 -144.68847656 619.74853516 C-145.69056152 619.57692871 -146.69264648 619.40532227 -147.72509766 619.22851562 C-193.00961718 611.16592575 -238.26529728 593.69090163 -275.68847656 566.74853516 C-276.26903809 566.33087891 -276.84959961 565.91322266 -277.44775391 565.48291016 C-280.91288823 562.9694892 -284.31343029 560.3812692 -287.68847656 557.74853516 C-288.97625 556.75080078 -288.97625 556.75080078 -290.29003906 555.73291016 C-295.49269453 551.64165787 -300.45458267 547.34075894 -305.34082031 542.87744141 C-307.3210646 541.08171239 -309.33413006 539.34785909 -311.37597656 537.62353516 C-321.74476397 528.56138356 -331.21556514 518.59149174 -339.68847656 507.74853516 C-340.63901952 506.58496272 -341.59231988 505.42363932 -342.54785156 504.26416016 C-349.07311878 496.30936968 -355.04867317 488.14990268 -360.58300781 479.47607422 C-361.57241099 477.92991325 -362.58225564 476.39687745 -363.59472656 474.86572266 C-393.05340308 429.05498418 -411.62793073 372.71143084 -411.89160156 318.08837891 C-411.89861588 317.10858063 -411.90563019 316.12878235 -411.91285706 315.11929321 C-411.93025875 311.97482651 -411.93670939 308.83054825 -411.93847656 305.68603516 C-411.93915131 304.61062469 -411.93982605 303.53521423 -411.94052124 302.42721558 C-411.92447103 286.33155296 -411.47652699 270.63906256 -408.68847656 254.74853516 C-408.51687012 253.73500977 -408.34526367 252.72148437 -408.16845703 251.67724609 C-395.7572743 180.00516135 -358.2684586 107.66941637 -300.39941406 61.90478516 C-297.61799097 59.69247168 -294.94170803 57.38245054 -292.25097656 55.06103516 C-250.77476037 20.58660288 -197.73862886 -1.74497678 -144.68847656 -10.25146484 C-143.67462891 -10.41517578 -142.66078125 -10.57888672 -141.61621094 -10.74755859 C-95.04958784 -17.84845512 -44.77946095 -14.57871522 0 0 Z " fill="#FDFDFD" transform="translate(411.6884765625,13.25146484375)"/>
<path d="M0 0 C-1.37758712 4.45553712 -3.13008112 8.50335226 -5.22119141 12.66943359 C-5.54025452 13.30785187 -5.85931763 13.94627014 -6.18804932 14.60403442 C-7.23877003 16.70408881 -8.29512972 18.80125158 -9.3515625 20.8984375 C-10.09217952 22.37593235 -10.83243813 23.8536069 -11.57235718 25.33145142 C-13.52208103 29.22327724 -15.47658425 33.11268336 -17.43212891 37.00158691 C-19.39376914 40.90459255 -21.35103593 44.80978943 -23.30859375 48.71484375 C-26.20410755 54.48999518 -29.10216203 60.26386165 -32.00244141 66.03662109 C-35.70541958 73.40799702 -39.39592044 80.78557644 -43.08301926 88.16490555 C-44.44414747 90.8888437 -45.80607004 93.61238451 -47.16796875 96.3359375 C-47.66208252 97.32416504 -48.15619629 98.31239258 -48.6652832 99.33056641 C-66.83203125 135.6640625 -66.83203125 135.6640625 -68.38679504 138.77345276 C-69.47783252 140.95562059 -70.56871994 143.13786346 -71.6594696 145.32017517 C-76.27877237 154.56167072 -80.90333689 163.80052931 -85.52865064 173.03901756 C-91.39436519 184.7551153 -97.25806702 196.47221935 -103.1208086 208.18980503 C-106.83473646 215.61251696 -110.54941947 223.03484917 -114.26586914 230.45629883 C-117.53621376 236.98691933 -120.80507913 243.5182779 -124.07228011 250.05047172 C-125.79013274 253.48489379 -127.50864262 256.91898274 -129.22895241 260.35217476 C-136.09361792 274.05294884 -142.91912604 287.76766506 -149.47903156 301.61794376 C-153.04694081 309.14982494 -156.81005125 316.56036066 -160.6875 323.9375 C-161.31221167 325.13327412 -161.93655932 326.32923848 -162.56054688 327.52539062 C-164.03685593 330.35212191 -165.51659105 333.17699027 -167 336 C-168.65 336 -170.3 336 -172 336 C-172.13190279 319.71589295 -172.26234505 303.4317749 -172.39115143 287.14764309 C-172.45102052 279.58287961 -172.51132858 272.01812016 -172.57275391 264.45336914 C-172.62642916 257.84291821 -172.67919554 251.23246068 -172.73096704 244.62199455 C-172.75828754 241.13729289 -172.7859971 237.65259553 -172.81480408 234.16790581 C-172.83100548 232.19403232 -172.83100548 232.19403232 -172.84753418 230.18028259 C-172.86176044 228.47072844 -172.86176044 228.47072844 -172.87627411 226.72663784 C-172.99996107 209.81530941 -173 192.91372539 -173 176 C-242.96 176 -312.92 176 -385 176 C-385 175.34 -385 174.68 -385 174 C-383.52128418 173.34366577 -383.52128418 173.34366577 -382.01269531 172.67407227 C-359.1529965 162.53870331 -359.1529965 162.53870331 -336.33618164 152.30737305 C-331.52262865 150.13419166 -326.70447765 147.97152734 -321.8828125 145.81640625 C-305.27996526 138.39861078 -305.27996526 138.39861078 -288.7734375 130.76953125 C-274.5367775 124.07837872 -260.19401437 117.62937737 -245.80700684 111.26989746 C-232.65308648 105.45472181 -219.57291587 99.5129537 -206.56851196 93.37069702 C-196.14232666 88.44765205 -185.66068028 83.66796103 -175.12744141 78.97705078 C-165.70190589 74.77588942 -156.31603757 70.49242801 -146.9375 66.1875 C-134.09801072 60.29523293 -121.21034666 54.52059825 -108.29013062 48.80773926 C-96.89304168 43.76552443 -85.56592201 38.59273191 -74.27685547 33.31323242 C-67.65758061 30.22074868 -61.01502737 27.20727848 -54.30664062 24.3137207 C-49.4697587 22.22334765 -44.69442687 20.01351559 -39.92919922 17.76635742 C-33.73507708 14.85361635 -27.4823528 12.07521955 -21.23193359 9.28588867 C-15.43503914 6.68431441 -9.74933219 3.93980677 -4.1171875 0.99609375 C-2 0 -2 0 0 0 Z " fill="#01A9F9" transform="translate(554,116)"/>
<path d="M0 0 C51.46090415 -1.90062657 106.89473674 12.0693526 148.59033203 43.09863281 C149.25033203 44.08863281 149.91033203 45.07863281 150.59033203 46.09863281 C139.86769892 51.48479158 129.13968635 56.86127146 118.33203125 62.07519531 C116.73269103 62.85127293 115.13705131 63.63501614 113.54492188 64.42578125 C111.20154192 65.58821917 108.84708118 66.72467157 106.48876953 67.85644531 C105.78247406 68.2135257 105.07617859 68.57060608 104.34848022 68.93850708 C100.97192394 70.52759141 99.06035192 71.19930056 95.36328125 70.4074707 C94.44820801 69.9755542 93.53313477 69.5436377 92.59033203 69.09863281 C91.86555664 68.81802002 91.14078125 68.53740723 90.39404297 68.24829102 C89.71116211 67.96816162 89.02828125 67.68803223 88.32470703 67.39941406 C43.5127857 49.41008945 -3.97501831 44.8961974 -50.40966797 60.09863281 C-51.14749512 60.33984863 -51.88532227 60.58106445 -52.64550781 60.82958984 C-63.02621144 64.30895492 -72.76566091 68.94357063 -82.40966797 74.09863281 C-83.33440918 74.59000732 -83.33440918 74.59000732 -84.27783203 75.09130859 C-122.32461827 95.49748176 -151.60855611 130.89658344 -164.15966797 172.28613281 C-173.5543303 205.70412154 -172.77768884 239.35822293 -161.40966797 272.09863281 C-160.97460938 273.35208496 -160.97460938 273.35208496 -160.53076172 274.63085938 C-151.23859401 300.76759518 -132.01758875 332.83663209 -107.27593994 347.35029602 C-105.40966797 349.09863281 -105.40966797 349.09863281 -104.9286499 351.88908386 C-104.94197357 353.5845208 -104.94197357 353.5845208 -104.95556641 355.31420898 C-104.95586853 356.59531052 -104.95617065 357.87641205 -104.95648193 359.19633484 C-104.97690858 360.59476338 -104.99777257 361.9931856 -105.01904297 363.39160156 C-105.02650438 364.82220164 -105.03219779 366.25281195 -105.03619385 367.6834259 C-105.0514584 371.44676996 -105.09074621 375.2094954 -105.13500977 378.97259521 C-105.1759454 382.81335074 -105.19420114 386.65420634 -105.21435547 390.49511719 C-105.25724059 398.02990427 -105.32550069 405.56418182 -105.40966797 413.09863281 C-114.28012075 408.80519667 -122.96185607 404.54746151 -131.03466797 398.84863281 C-131.82824707 398.2963501 -132.62182617 397.74406738 -133.43945312 397.17504883 C-140.84840066 391.93743198 -147.69812641 386.19224212 -154.40966797 380.09863281 C-155.55410024 379.07638657 -156.69863221 378.05425195 -157.84326172 377.03222656 C-199.07142625 339.92096339 -221.96148739 289.12962883 -225.40966797 234.09863281 C-227.78205694 183.16821537 -214.39199453 134.05652959 -183.40966797 93.09863281 C-182.82830078 92.30457031 -182.24693359 91.51050781 -181.64794922 90.69238281 C-176.87300153 84.31037041 -171.45091849 78.51326318 -165.96826172 72.74072266 C-164.96395777 71.68261671 -163.96363096 70.62071443 -162.96826172 69.55419922 C-154.60361843 60.61579732 -145.29139048 53.29406183 -135.40966797 46.09863281 C-134.83603516 45.67453125 -134.26240234 45.25042969 -133.67138672 44.81347656 C-95.00206984 16.30544003 -47.63365093 1.9497462 0 0 Z " fill="#0D2546" transform="translate(281.40966796875,101.9013671875)"/>
<path d="M0 0 C144.67708333 0 144.67708333 0 156.8125 11.25 C165.86087893 21.12870076 168.64563745 33.07504052 168.3515625 46.21484375 C167.24366907 58.14316297 162.55138831 68.26907541 153.8671875 76.46875 C143.04316852 85.34535134 127.44243085 86.16741739 114.03515625 86.09765625 C112.48519203 86.09553383 112.48519203 86.09553383 110.90391541 86.09336853 C107.6234134 86.08779839 104.34298117 86.07525141 101.0625 86.0625 C98.83007911 86.05748114 96.59765715 86.05291891 94.36523438 86.04882812 C88.91013269 86.03783875 83.45507133 86.0211305 78 86 C78.01013972 86.77599297 78.02027945 87.55198593 78.03072643 88.35149384 C78.27382899 107.2475297 78.45576499 126.14325285 78.56993389 145.04051971 C78.62661571 154.1792777 78.70386556 163.31699088 78.82983398 172.45507812 C78.93959833 180.42148686 79.01046859 188.38713893 79.03497344 196.35428286 C79.04929549 200.57193478 79.08285633 204.78742241 79.16303062 209.00437927 C79.23795869 212.97776105 79.26068062 216.94809797 79.24418449 220.92211914 C79.24719972 222.37667935 79.26894071 223.83134601 79.31126022 225.28529358 C79.61459452 236.24873962 79.61459452 236.24873962 75.60175514 240.60124207 C72.8172973 242.65038983 70.03628878 244.35421798 67 246 C65.71364761 246.85711981 64.43453429 247.72553266 63.171875 248.6171875 C62.03284418 249.37220221 60.89221489 250.12481097 59.75 250.875 C58.46349855 251.72649736 57.17704151 252.57806182 55.890625 253.4296875 C55.24673828 253.85475586 54.60285156 254.27982422 53.93945312 254.71777344 C50.78655955 256.80223933 47.64371213 258.90172432 44.5 261 C43.25005011 261.83340849 42.00005005 262.66674175 40.75 263.5 C40.13125 263.9125 39.5125 264.325 38.875 264.75 C36.0625 266.625 36.0625 266.625 33.25 268.5 C32.63060547 268.9129834 32.01121094 269.3259668 31.37304688 269.75146484 C30.12975777 270.58021621 28.88626987 271.40866941 27.64257812 272.23681641 C24.41316185 274.38778386 21.18792266 276.5446638 17.96875 278.7109375 C17.30423828 279.15695312 16.63972656 279.60296875 15.95507812 280.0625 C14.69725995 280.9069094 13.44064787 281.75311963 12.18554688 282.6015625 C11.60869141 282.98828125 11.03183594 283.375 10.4375 283.7734375 C9.94121094 284.10778809 9.44492188 284.44213867 8.93359375 284.78662109 C6.01315048 286.61927299 2.99356359 288.28939224 0 290 C0 194.3 0 98.6 0 0 Z " fill="#0D2547" transform="translate(197,309)"/>
<path d="M0 0 C3.55111423 3.82508743 4.56868234 8.40850718 5.9375 13.3125 C6.19619873 14.22950684 6.45489746 15.14651367 6.72143555 16.09130859 C15.90827917 49.84390327 17.37391221 86.78755082 10 121 C9.79632812 122.01916504 9.59265625 123.03833008 9.3828125 124.08837891 C2.2963811 159.36196609 -14.2436193 191.14959966 -38 218 C-38.73734375 218.85980469 -39.4746875 219.71960938 -40.234375 220.60546875 C-78.83138065 264.90750625 -137.54792284 289.00806557 -195 295 C-203.25 295 -211.5 295 -220 295 C-220 278.17 -220 261.34 -220 244 C-215.194375 243.608125 -210.38875 243.21625 -205.4375 242.8125 C-183.75221932 240.84811792 -164.12274405 236.45997672 -144 228 C-143.20722656 227.67628418 -142.41445313 227.35256836 -141.59765625 227.01904297 C-120.46039098 218.37158024 -102.50055543 205.71919208 -86 190 C-85.21882812 189.28328125 -84.43765625 188.5665625 -83.6328125 187.828125 C-72.91100981 177.67866053 -64.77084506 165.03681608 -58 152 C-57.5035498 151.05398926 -57.5035498 151.05398926 -56.99707031 150.08886719 C-47.17818811 131.118223 -40.45529978 110.19674157 -39.8046875 88.734375 C-39.24847584 74.20383389 -34.87097792 64.15740106 -27.55761719 51.68408203 C-25.28658465 47.77064445 -23.20722048 43.76602181 -21.125 39.75 C-20.32613652 38.23405039 -19.52663452 36.71843713 -18.7265625 35.203125 C-16.57952982 31.11804838 -14.45485469 27.02158498 -12.3359375 22.921875 C-12.01899933 22.30898621 -11.70206116 21.69609741 -11.3755188 21.06463623 C-9.79626984 18.010149 -8.21909049 14.95461974 -6.64501953 11.89746094 C-5.78432861 10.23118652 -5.78432861 10.23118652 -4.90625 8.53125 C-4.39384766 7.53673828 -3.88144531 6.54222656 -3.35351562 5.51757812 C-2 3 -2 3 0 0 Z " fill="#0D2547" transform="translate(515,247)"/>
</svg>
